<?xml version="1.0" encoding="UTF-8" standalone="no"?>
<!DOCTYPE svg PUBLIC "-//W3C//DTD SVG 1.1//EN" "http://www.w3.org/Graphics/SVG/1.1/DTD/svg11.dtd">
<svg width="100%" height="100%" viewBox="0 0 1080 1350" version="1.1" xmlns="http://www.w3.org/2000/svg" xmlns:xlink="http://www.w3.org/1999/xlink" xml:space="preserve" xmlns:serif="http://www.serif.com/" style="fill-rule:evenodd;clip-rule:evenodd;stroke-linejoin:round;stroke-miterlimit:2;">
    <g transform="matrix(1.206633,0,0,1.123974,-209.318878,-159.927074)">
        <path d="M1013,403.414L1013,1079.586C1013,1195.717 925.175,1290 817,1290L425,1290C316.825,1290 229,1195.717 229,1079.586L229,403.414C229,287.283 316.825,193 425,193L817,193C925.175,193 1013,287.283 1013,403.414Z" style="fill:rgb(178,178,178);"/>
    </g>
    <path d="M155,507.516L155,511.484C155,528.326 141.326,542 124.484,542L57.516,542C40.674,542 27,528.326 27,511.484L27,507.516C27,490.674 40.674,477 57.516,477L124.484,477C141.326,477 155,490.674 155,507.516Z" style="fill:rgb(54,94,88);"/>
    <g transform="matrix(1,0,0,1,0,166.726394)">
        <path d="M155,507.516L155,511.484C155,528.326 141.326,542 124.484,542L57.516,542C40.674,542 27,528.326 27,511.484L27,507.516C27,490.674 40.674,477 57.516,477L124.484,477C141.326,477 155,490.674 155,507.516Z" style="fill:rgb(54,94,88);"/>
    </g>
    <g transform="matrix(1,0,0,1,0,342.223981)">
        <path d="M155,507.516L155,511.484C155,528.326 141.326,542 124.484,542L57.516,542C40.674,542 27,528.326 27,511.484L27,507.516C27,490.674 40.674,477 57.516,477L124.484,477C141.326,477 155,490.674 155,507.516Z" style="fill:rgb(54,94,88);"/>
    </g>
</svg>
